<?xml version="1.0" standalone="no"?>
<!DOCTYPE svg PUBLIC "-//W3C//DTD SVG 20010904//EN"
 "http://www.w3.org/TR/2001/REC-SVG-20010904/DTD/svg10.dtd">
<svg version="1.0" xmlns="http://www.w3.org/2000/svg"
 width="50px" height="50px" viewBox="0 0 1000 1000"
 preserveAspectRatio="xMidYMid meet">

<g transform="translate(0.000000,1000.000000) scale(0.100000,-0.100000)"
fill="blue" stroke="none">
<path d="M0 5000 l0 -5000 5000 0 5000 0 0 5000 0 5000 -5000 0 -5000 0 0
-5000z m7527 2614 c-3 -3 -12 -4 -19 -1 -8 3 -5 6 6 6 11 1 17 -2 13 -5z
m-4096 -331 c13 -16 12 -17 -3 -4 -17 13 -22 21 -14 21 2 0 10 -8 17 -17z m40
-30 c13 -16 12 -17 -3 -4 -17 13 -22 21 -14 21 2 0 10 -8 17 -17z m-1036 -14
c821 -83 1460 -566 1700 -1285 35 -106 36 -115 45 -324 5 -118 14 -435 20
-705 6 -269 12 -526 13 -570 l2 -79 50 2 c28 1 302 6 610 12 308 6 632 13 720
16 l160 6 -3 736 c-3 811 -3 815 58 968 230 577 721 1015 1311 1168 460 119
1074 87 1506 -78 519 -198 870 -580 1024 -1116 29 -100 31 -117 39 -380 27
-860 40 -2940 20 -3269 -21 -346 -105 -609 -270 -850 -233 -340 -627 -583
-1175 -726 -400 -105 -576 -118 -1833 -137 -1120 -17 -3091 5 -3832 43 -651
32 -1295 238 -1693 541 -330 252 -534 584 -602 982 -36 211 -55 1048 -55 2412
l0 1061 29 119 c149 602 497 1059 982 1288 333 158 714 211 1174 165z m6576
-6 c13 -16 12 -17 -3 -4 -10 7 -18 15 -18 17 0 8 8 3 21 -13z m-8051 -36 c0
-2 -10 -12 -22 -23 l-23 -19 19 23 c18 21 26 27 26 19z m8130 -32 c19 -19 32
-35 29 -35 -3 0 -20 16 -39 35 -19 19 -32 35 -29 35 3 0 20 -16 39 -35z
m-5480 -30 c19 -19 32 -35 29 -35 -3 0 -20 16 -39 35 -19 19 -32 35 -29 35 3
0 20 -16 39 -35z m2640 -8 c0 -1 -24 -25 -52 -52 l-53 -50 50 53 c46 48 55 57
55 49z m2920 -42 c19 -19 32 -35 29 -35 -3 0 -20 16 -39 35 -19 19 -32 35 -29
35 3 0 20 -16 39 -35z m-8380 -58 c0 -2 -10 -12 -22 -23 l-23 -19 19 23 c18
21 26 27 26 19z m2935 -17 c10 -11 16 -20 13 -20 -3 0 -13 9 -23 20 -10 11
-16 20 -13 20 3 0 13 -9 23 -20z m5516 -7 c13 -16 12 -17 -3 -4 -10 7 -18 15
-18 17 0 8 8 3 21 -13z m-3101 4 c0 -2 -10 -12 -22 -23 l-23 -19 19 23 c18 21
26 27 26 19z m-2339 -94 c13 -16 12 -17 -3 -4 -10 7 -18 15 -18 17 0 8 8 3 21
-13z m1946 -1035 c-3 -8 -6 -5 -6 6 -1 11 2 17 5 13 3 -3 4 -12 1 -19z m-5500
-150 c-3 -8 -6 -5 -6 6 -1 11 2 17 5 13 3 -3 4 -12 1 -19z m8253 -5359 l35
-61 3 61 c4 90 22 74 22 -19 0 -100 -12 -103 -63 -17 l-37 62 0 -62 c0 -35 -4
-63 -10 -63 -6 0 -10 33 -10 80 0 99 12 103 60 19z m312 36 c-4 -22 -1 -25 25
-25 35 0 53 -16 53 -48 0 -44 -17 -62 -60 -62 l-40 0 0 80 c0 61 3 80 14 80 9
0 12 -8 8 -25z m573 16 c-6 -5 -28 -11 -50 -13 -32 -2 -40 -7 -40 -23 0 -16 8
-21 45 -25 40 -4 45 -8 48 -33 5 -42 -13 -57 -69 -57 -63 0 -64 18 -1 22 39 3
47 6 47 23 0 16 -8 21 -35 23 -43 4 -60 18 -60 46 0 34 20 46 74 46 31 0 46
-4 41 -9z m55 -71 c0 -64 -3 -80 -15 -80 -12 0 -15 16 -15 80 0 64 3 80 15 80
12 0 15 -16 15 -80z m242 55 c-4 -22 -1 -25 26 -25 37 0 52 -22 52 -74 0 -25
-4 -36 -15 -36 -8 0 -14 3 -14 8 1 4 1 24 0 45 -1 33 -4 37 -26 37 -23 0 -25
-4 -25 -45 0 -25 -4 -45 -10 -45 -6 0 -10 33 -10 80 0 61 3 80 14 80 9 0 12
-8 8 -25z m-538 -10 c-4 -10 0 -15 15 -15 12 0 21 -4 21 -10 0 -5 -9 -10 -20
-10 -26 0 -28 -54 -3 -69 10 -5 14 -13 10 -17 -15 -16 -42 13 -45 49 -3 39
-16 48 -49 36 -19 -7 -23 -16 -23 -49 0 -22 -4 -40 -10 -40 -14 0 -12 84 2 98
7 7 27 12 45 12 23 0 33 5 33 15 0 8 7 15 15 15 9 0 12 -6 9 -15z m466 0 c0
-8 9 -15 20 -15 11 0 20 -4 20 -10 0 -5 -9 -10 -20 -10 -26 0 -28 -54 -3 -69
10 -5 14 -13 10 -17 -15 -15 -42 13 -45 47 -2 19 -9 38 -15 42 -9 6 -9 10 1
14 6 2 12 11 12 19 0 8 5 14 10 14 6 0 10 -7 10 -15z m-932 -27 c7 -7 12 -26
12 -43 0 -38 -16 -55 -50 -55 -34 0 -50 17 -50 55 0 38 16 55 50 55 14 0 31
-5 38 -12z m102 7 c0 -3 -11 -10 -25 -15 -21 -8 -25 -16 -25 -50 0 -22 -4 -40
-10 -40 -14 0 -12 84 2 98 12 12 58 17 58 7z m220 -14 c20 -39 13 -51 -31 -51
-24 0 -38 -4 -34 -10 3 -5 19 -10 36 -10 16 0 29 -4 29 -10 0 -14 -64 -12 -78
2 -7 7 -12 26 -12 43 0 17 5 36 12 43 19 19 66 15 78 -7z m550 4 c7 -8 13 -26
13 -40 0 -34 -20 -55 -52 -55 -35 0 -51 17 -51 55 0 17 5 36 12 43 17 17 63
15 78 -3z m-300 -25 c0 -5 -13 -10 -30 -10 -16 0 -30 5 -30 10 0 6 14 10 30
10 17 0 30 -4 30 -10z"/>
<path d="M7645 5540 c-376 -58 -597 -328 -477 -584 59 -125 196 -229 367 -278
106 -30 343 -33 445 -5 324 90 490 342 379 575 -34 71 -143 173 -230 216 -137
67 -337 98 -484 76z"/>
<path d="M2125 5510 c-137 -22 -258 -73 -352 -149 -195 -158 -204 -396 -23
-565 74 -68 127 -98 242 -138 89 -31 100 -32 248 -33 179 0 238 12 367 75 109
54 192 131 235 218 29 58 33 76 33 147 0 69 -4 89 -31 146 -61 129 -219 242
-394 284 -83 19 -247 27 -325 15z"/>
<path d="M8810 325 c0 -31 3 -35 25 -35 18 0 26 7 31 24 8 32 -2 46 -32 46
-21 0 -24 -5 -24 -35z"/>
<path d="M8614 346 c-11 -29 0 -51 26 -51 21 0 25 5 25 30 0 24 -5 31 -23 33
-13 2 -24 -3 -28 -12z"/>
<path d="M8937 353 c-14 -13 -6 -23 18 -23 16 0 25 6 25 15 0 15 -31 21 -43 8z"/>
<path d="M9484 346 c-11 -29 0 -51 26 -51 21 0 25 5 25 30 0 24 -5 31 -23 33
-13 2 -24 -3 -28 -12z"/>
</g>
</svg>
