<svg version="1.1" id="Layer_1" xmlns="http://www.w3.org/2000/svg" xmlns:xlink="http://www.w3.org/1999/xlink" x="0px" y="0px"
	 width="30px" viewBox="0 240 500 550" enable-background="new 0 0 512 512" xml:space="preserve">
<path fill="#FFFFFF" opacity="1.000000" stroke="none" 
	d="
M512.656128,177.891510 
	C513.000000,288.292480 512.984924,398.584961 513.076111,508.877380 
	C513.078735,512.034546 512.801392,513.111206 509.125427,513.108521 
	C341.021118,512.983521 172.916702,512.981995 4.812407,513.114197 
	C1.008997,513.117188 0.932094,511.844574 0.934251,508.815216 
	C1.012541,398.855957 1.000000,288.896637 1.000000,178.468658 
	C2.708584,177.463837 3.546767,178.704071 4.098948,179.838257 
	C6.772626,185.330002 11.597545,188.652695 16.252439,192.147614 
	C91.109894,248.350952 166.017593,304.487305 240.903809,360.652313 
	C251.942871,368.931671 261.978973,368.988617 272.917999,360.784332 
	C348.204224,304.319855 423.513855,247.886566 498.768860,191.380463 
	C503.031189,188.180038 507.366730,185.045074 509.760681,180.014450 
	C510.265625,178.953354 511.073761,178.082458 512.656128,177.891510 
z"/>
<path fill="#FFFFFF" opacity="1.000000" stroke="none" 
	d="
M1.345994,161.107239 
	C1.000000,109.027275 1.035188,57.054462 0.915720,5.082010 
	C0.908268,1.839995 1.320838,0.893104 4.914062,0.895667 
	C172.992432,1.015529 341.070923,1.017063 509.149292,0.889279 
	C512.872437,0.886448 513.079834,2.036257 513.073730,5.145347 
	C512.970581,57.450970 513.000000,109.756859 513.000000,162.531342 
	C511.091705,163.302322 510.974426,161.616074 510.394165,160.556000 
	C502.634277,146.380035 487.996246,142.961395 474.958679,152.610519 
	C455.939301,166.686798 437.069122,180.964981 418.143036,195.167328 
	C366.963287,233.573257 315.748322,271.932220 264.582947,310.357300 
	C264.183197,310.657532 263.776794,310.948730 263.375092,311.246307 
	C257.275208,315.764923 256.721527,315.798401 250.779648,311.345917 
	C233.977615,298.755524 217.176804,286.163513 200.383041,273.562042 
	C147.336166,233.757584 94.276405,193.970291 41.211025,154.190491 
	C26.677937,143.295944 14.956739,144.974106 3.998204,159.416214 
	C3.383175,160.226761 2.734921,160.966232 1.345994,161.107239 
z"/>
<path fill="#000000" opacity="1.000000" stroke="none" 
	d="
M1.000000,161.467606 
	C3.939139,159.677795 4.094510,156.293640 6.154193,154.165741 
	C16.015345,143.978043 29.201050,143.438828 40.327049,151.803711 
	C69.462906,173.708984 98.702797,195.475906 127.835335,217.385574 
	C153.876343,236.970230 179.810287,256.697174 205.828293,276.312531 
	C221.740814,288.309204 237.743454,300.186401 253.649933,312.191071 
	C255.870255,313.866760 257.808472,314.163208 260.068939,312.453949 
	C283.212067,294.954132 306.323395,277.411682 329.536041,260.004456 
	C352.855621,242.517059 376.321594,225.225006 399.646118,207.744217 
	C420.273010,192.285202 440.784698,176.672546 461.367371,161.154404 
	C466.407410,157.354507 471.429016,153.517776 476.627594,149.943008 
	C489.603180,141.020554 508.339081,147.824310 512.640686,162.894318 
	C513.000000,167.689255 513.000000,172.378510 513.000000,177.533875 
	C512.838013,178.038849 512.580505,178.026062 512.527649,178.123901 
	C505.247986,191.594650 491.438751,197.840042 480.217133,206.825134 
	C463.932159,219.864502 446.824219,231.873367 430.123871,244.397263 
	C410.810730,258.880493 391.580536,273.474304 372.274353,287.966949 
	C354.151794,301.571106 335.989258,315.122131 317.821686,328.666168 
	C302.385529,340.173920 286.784760,351.465881 271.512238,363.186157 
	C262.218811,370.317963 249.483444,368.881653 240.572540,362.141388 
	C214.231094,342.216705 187.693054,322.552216 161.292023,302.706024 
	C139.274002,286.154694 117.396240,269.416565 95.355606,252.895569 
	C69.322929,233.382233 43.152275,214.052994 17.109989,194.552383 
	C11.047941,190.013092 4.888950,185.454544 1.347269,178.083328 
	C1.000000,172.645065 1.000000,167.290146 1.000000,161.467606 
z"/>
</svg>